HIERARCHY
ROOT Hips
{
	OFFSET 48.983002 1.078935 95.459702
	CHANNELS 6 Xposition Yposition Zposition Xrotation Yrotation Zrotation
	JOINT spine
	{
		OFFSET 0.000000 -0.458068 7.965683
		CHANNELS 3 Xrotation Yrotation Zrotation
		JOINT spine1
		{
			OFFSET 0.000000 -0.000002 10.243103
			CHANNELS 3 Xrotation Yrotation Zrotation
			JOINT spine2
			{
				OFFSET 0.000000 -0.000002 9.814751
				CHANNELS 3 Xrotation Yrotation Zrotation
				JOINT Neck
				{
					OFFSET 0.000000 -1.201384 25.198601
					CHANNELS 3 Xrotation Yrotation Zrotation
					JOINT Head
					{
						OFFSET 0.000000 -0.000001 7.613144
						CHANNELS 3 Xrotation Yrotation Zrotation
						End Site
						{
							OFFSET 0.000000 6.077327 18.428101
						}
					}
				}
				JOINT RightShoulder
				{
					OFFSET -4.132698 0.575449 10.599205
					CHANNELS 3 Xrotation Yrotation Zrotation
					JOINT RightArm
					{
						OFFSET 0.000000 -0.000002 13.901794
						CHANNELS 3 Xrotation Yrotation Zrotation
						JOINT RightArmRoll
						{
							OFFSET 0.000000 -0.000001 7.017883
							CHANNELS 3 Xrotation Yrotation Zrotation
							JOINT RightForeArm
							{
								OFFSET 0.000000 -0.000003 20.440598
								CHANNELS 3 Xrotation Yrotation Zrotation
								JOINT RightForeArmRoll
								{
									OFFSET 0.000000 -0.000001 7.875153
									CHANNELS 3 Xrotation Yrotation Zrotation
									JOINT RightHand
									{
										OFFSET 0.000000 -0.000003 15.803696
										CHANNELS 3 Xrotation Yrotation Zrotation
										End Site
										{
											OFFSET 0.000000 0.000000 0.100006
										}
									}
								}
							}
						}
					}
				}
				JOINT LeftShoulder
				{
					OFFSET 4.132698 0.575449 10.599205
					CHANNELS 3 Xrotation Yrotation Zrotation
					JOINT LeftArm
					{
						OFFSET 0.000000 -0.000002 13.901794
						CHANNELS 3 Xrotation Yrotation Zrotation
						JOINT LeftArmRoll
						{
							OFFSET 0.000000 -0.000001 7.017883
							CHANNELS 3 Xrotation Yrotation Zrotation
							JOINT LeftForeArm
							{
								OFFSET 0.000000 -0.000003 20.440598
								CHANNELS 3 Xrotation Yrotation Zrotation
								JOINT LeftForeArmRoll
								{
									OFFSET 0.000000 -0.000001 7.875153
									CHANNELS 3 Xrotation Yrotation Zrotation
									JOINT LeftHand
									{
										OFFSET 0.000000 -0.000003 15.803696
										CHANNELS 3 Xrotation Yrotation Zrotation
										End Site
										{
											OFFSET 0.000000 0.000000 0.100006
										}
									}
								}
							}
						}
					}
				}
			}
		}
	}
	JOINT RightUpLeg
	{
		OFFSET -7.060478 1.086100 -1.294701
		CHANNELS 3 Xrotation Yrotation Zrotation
		JOINT RightUpLegRoll
		{
			OFFSET 0.000000 -0.000003 18.530800
			CHANNELS 3 Xrotation Yrotation Zrotation
			JOINT RightLeg
			{
				OFFSET 0.000000 0.000004 -22.947601
				CHANNELS 3 Xrotation Yrotation Zrotation
				JOINT RightLegRoll
				{
					OFFSET 0.000000 -0.000004 23.022598
					CHANNELS 3 Xrotation Yrotation Zrotation
					JOINT RightFoot
					{
						OFFSET 0.000000 -0.000003 19.162506
						CHANNELS 3 Xrotation Yrotation Zrotation
						JOINT RightToeBase
						{
							OFFSET 0.000000 -0.000003 16.018799
							CHANNELS 3 Xrotation Yrotation Zrotation
							End Site
							{
								OFFSET 0.006790 0.894205 7.757828
							}
						}
					}
				}
			}
		}
	}
	JOINT LeftUpLeg
	{
		OFFSET 7.060478 1.086100 -1.294701
		CHANNELS 3 Xrotation Yrotation Zrotation
		JOINT LeftUpLegRoll
		{
			OFFSET 0.000000 -0.000003 18.530899
			CHANNELS 3 Xrotation Yrotation Zrotation
			JOINT LeftLeg
			{
				OFFSET 0.000000 -0.000004 22.947502
				CHANNELS 3 Xrotation Yrotation Zrotation
				JOINT LeftLegRoll
				{
					OFFSET 0.000000 -0.000004 23.235504
					CHANNELS 3 Xrotation Yrotation Zrotation
					JOINT LeftFoot
					{
						OFFSET 0.000000 -0.000003 18.949600
						CHANNELS 3 Xrotation Yrotation Zrotation
						JOINT LeftToeBase
						{
							OFFSET 0.000000 -0.000002 16.018799
							CHANNELS 3 Xrotation Yrotation Zrotation
							End Site
							{
								OFFSET -0.030430 0.894205 7.757828
							}
						}
					}
				}
			}
		}
	}
}
MOTION
Frames: 11
Frame Time: 0.041667
91.643997 -11.027718 93.076103 -4.451751 17.969425 124.726931 0.036078 -0.220946 1.698496 4.082090 -0.423883 3.398483 5.725990 -0.383160 3.403306 -5.829423 52.812057 -3.606040 17.790594 -47.079446 -2.738492 21.275682 -10.526120 40.662134 -38.319964 -173.528360 -45.323954 0.000002 0.000000 -0.000003 9.501840 -0.392370 -0.370947 0.000000 0.000011 -3.009390 -5.000189 -7.998780 0.000059 -136.763432 79.053825 143.087450 151.874966 112.724131 -126.149031 0.000003 0.000001 -0.000000 94.026884 0.303666 12.329333 0.000007 -0.000001 2.999989 -5.000243 7.999055 -0.000031 4.760925 -183.114257 -5.491279 179.999991 -0.000005 -0.862002 173.554301 -2.308326 -0.651715 -0.000000 -0.000005 0.024269 67.234306 6.733042 2.661621 42.220234 -9.905525 -7.365834 -35.201545 195.430946 12.646574 -0.000003 -0.000004 -0.912806 -16.668049 -2.009682 0.362642 -0.000003 -0.000002 -0.898477 75.198607 -7.192472 -0.710835 25.456955 7.355607 0.000201 
91.669205 -11.037611 93.079895 -4.453776 17.951322 124.772202 0.046134 -0.223820 1.703141 4.102304 -0.429273 3.407821 5.746195 -0.388438 3.412726 -5.778776 52.779286 -3.655416 17.749148 -47.047996 -2.782617 21.237261 -10.534890 40.604331 -38.106308 -173.599872 -45.357036 -0.000000 -0.000001 -0.000003 9.537476 -0.558046 -0.371707 -0.000003 0.000012 -3.009390 -5.000192 -7.998776 0.000058 -136.666280 79.065266 142.990010 151.754864 112.706359 -126.055294 0.000000 0.000000 -0.000000 94.014590 0.308373 12.318192 0.000004 -0.000002 2.999990 -5.000245 7.999057 -0.000032 4.766330 -183.131182 -5.505986 179.999991 -0.000003 -0.862007 173.558385 -2.301395 -0.650762 -0.000002 -0.000006 0.024262 67.236539 6.732803 2.662832 42.235291 -9.909731 -7.370952 -35.193742 195.423897 12.639007 -0.000003 -0.000004 -0.915148 -16.699206 -2.003827 0.363920 -0.000003 -0.000003 -0.901002 75.213387 -7.190959 -0.713794 25.456955 7.355612 0.000200 
91.696106 -11.038411 93.075500 -4.453659 17.935563 124.815997 0.055843 -0.226193 1.707160 4.121804 -0.433681 3.415930 5.765688 -0.392751 3.420883 -5.727583 52.746416 -3.703864 17.708362 -47.013005 -2.826428 21.195689 -10.539574 40.544201 -37.892513 -173.675154 -45.394038 -0.000001 0.000001 -0.000004 9.568108 -0.726117 -0.372016 0.000001 0.000010 -3.009387 -5.000190 -7.998776 0.000061 -136.571436 79.076297 142.894907 151.638983 112.688504 -125.966105 -0.000001 -0.000000 -0.000000 94.001107 0.314144 12.306035 0.000005 -0.000001 2.999988 -5.000246 7.999057 -0.000033 4.770508 -183.143108 -5.516973 179.999991 -0.000005 -0.860994 173.561910 -2.295455 -0.649947 -0.000003 -0.000008 0.024256 67.238472 6.732599 2.663878 42.254774 -9.915305 -7.378017 -35.185125 195.418693 12.632441 -0.000003 -0.000004 -0.917282 -16.726064 -1.997761 0.365129 -0.000003 -0.000002 -0.903030 75.227526 -7.189497 -0.716801 25.456952 7.355612 0.000200 
91.716705 -11.051716 93.068695 -4.451574 17.921848 124.858344 0.065267 -0.228116 1.710671 4.140716 -0.437197 3.422997 5.784600 -0.396180 3.427995 -5.675978 52.713559 -3.751498 17.668583 -46.975029 -2.869457 21.151634 -10.540954 40.482306 -37.679572 -173.751926 -45.435641 -0.000001 0.000000 -0.000003 9.594796 -0.895758 -0.371978 0.000003 0.000011 -3.009391 -5.000194 -7.998777 0.000059 -136.479774 79.086965 142.803000 151.528020 112.670869 -125.882012 -0.000001 0.000000 -0.000000 93.986832 0.320799 12.292822 0.000005 -0.000002 2.999990 -5.000240 7.999056 -0.000032 4.773626 -183.150075 -5.524590 179.999991 -0.000004 -0.860000 173.564915 -2.291490 -0.649378 -0.000002 -0.000004 0.024251 67.239989 6.732428 2.664748 42.277959 -9.922185 -7.386779 -35.175812 195.415291 12.626646 -0.000001 -0.000003 -0.919221 -16.748710 -1.991538 0.366281 -0.000003 -0.000003 -0.904603 75.240777 -7.188061 -0.719868 25.456952 7.355610 0.000199 
91.741203 -11.039116 93.069901 -4.447700 17.910061 124.899271 0.074461 -0.229632 1.713742 4.159163 -0.439905 3.429190 5.803036 -0.398818 3.434221 -5.624113 52.680498 -3.798506 17.629550 -46.934618 -2.912290 21.105232 -10.539400 40.418611 -37.468089 -173.829394 -45.481031 0.000001 0.000000 -0.000001 9.618653 -1.066163 -0.371668 -0.000001 0.000012 -3.009392 -5.000193 -7.998776 0.000061 -136.392485 79.097313 142.715382 151.422548 112.653629 -125.803096 -0.000000 -0.000001 0.000002 93.971689 0.328155 12.277626 0.000005 -0.000001 2.999989 -5.000247 7.999057 -0.000031 4.775837 -183.154036 -5.529347 179.999991 -0.000004 -0.859003 173.567510 -2.287523 -0.648829 -0.000002 -0.000006 0.024249 67.241396 6.732208 2.665519 42.304491 -9.930070 -7.397231 -35.165598 195.413748 12.621489 -0.000001 -0.000003 -0.920971 -16.767460 -1.985233 0.367359 -0.000003 -0.000003 -0.905765 75.253269 -7.186636 -0.722986 25.456952 7.355613 0.000200 
91.758499 -11.042116 93.074699 -4.442194 17.899715 124.938804 0.083475 -0.230780 1.716464 4.177226 -0.441896 3.434707 5.821101 -0.400744 3.439753 -5.572116 52.647303 -3.845031 17.591852 -46.892182 -2.954386 21.057140 -10.535702 40.353663 -37.258778 -173.908446 -45.528060 0.000000 0.000002 -0.000003 9.640757 -1.236521 -0.371177 -0.000001 0.000012 -3.009390 -5.000191 -7.998780 0.000059 -136.310850 79.107312 142.633392 151.323306 112.637121 -125.729904 -0.000001 0.000001 0.000000 93.955966 0.336161 12.263388 0.000006 -0.000003 2.999989 -5.000238 7.999056 -0.000031 4.777283 -183.154036 -5.531488 179.999991 -0.000006 -0.859000 173.569764 -2.284547 -0.648404 -0.000002 -0.000006 0.024245 67.242591 6.731998 2.666205 42.333868 -9.939010 -7.408956 -35.154314 195.413242 12.617354 -0.000001 -0.000005 -0.922554 -16.782603 -1.978889 0.368365 -0.000003 -0.000002 -0.906555 75.264778 -7.185262 -0.725973 25.456952 7.355613 0.000198 
91.775711 -11.031317 93.071793 -4.435231 17.890694 124.977982 0.092365 -0.231610 1.718950 4.195045 -0.443253 3.439704 5.838916 -0.402040 3.444773 -5.520149 52.613900 -3.891214 17.555260 -46.848349 -2.996082 21.007621 -10.530489 40.287464 -37.052506 -173.985887 -45.577849 -0.000003 0.000001 -0.000001 9.662208 -1.406015 -0.370559 0.000002 0.000012 -3.009389 -5.000189 -7.998778 0.000058 -136.235554 79.117066 142.557591 151.230388 112.621384 -125.662162 -0.000003 -0.000001 -0.000000 93.939683 0.344472 12.247155 0.000005 -0.000003 2.999989 -5.000242 7.999055 -0.000031 4.778126 -183.151058 -5.531426 179.999991 -0.000004 -0.858002 173.571718 -2.282575 -0.648101 0.000001 -0.000005 0.024241 67.243690 6.731819 2.666703 42.365748 -9.948686 -7.421853 -35.142276 195.415414 12.613158 -0.000005 -0.000005 -0.923976 -16.794245 -1.972582 0.369296 -0.000003 -0.000003 -0.907009 75.275098 -7.183978 -0.729048 25.456952 7.355611 0.000199 
91.783798 -11.035316 93.072998 -4.426999 17.882598 125.015862 0.101189 -0.232161 1.721281 4.212718 -0.444065 3.444386 5.856576 -0.402797 3.449454 -5.468308 52.580251 -3.937248 17.520055 -46.803496 -3.037306 20.957220 -10.524304 40.220525 -36.849735 -174.063369 -45.627887 0.000000 -0.000001 -0.000002 9.684082 -1.573823 -0.369875 0.000004 0.000011 -3.009391 -5.000191 -7.998777 0.000060 -136.168004 79.126580 142.489412 151.144546 112.606966 -125.600376 0.000003 -0.000000 -0.000000 93.923168 0.353093 12.231899 0.000006 -0.000002 2.999990 -5.000251 7.999056 -0.000032 4.778528 -183.146072 -5.529589 179.999991 -0.000004 -0.858002 173.573453 -2.280587 -0.646810 0.000001 -0.000004 0.024234 67.244695 6.731668 2.667107 42.399468 -9.959038 -7.435744 -35.128920 195.417832 12.610205 -0.000000 -0.000004 -0.925253 -16.802687 -1.966358 0.370151 -0.000003 -0.000003 -0.907164 75.284312 -7.182717 -0.731995 25.456950 7.355609 0.000201 
91.795700 -11.028913 93.070595 -4.417661 17.875327 125.052431 0.109997 -0.232483 1.723529 4.230345 -0.444415 3.448928 5.874208 -0.403093 3.454003 -5.416753 52.546278 -3.983268 17.486278 -46.758208 -3.078104 20.906186 -10.517768 40.153050 -36.651324 -174.137681 -45.679025 -0.000001 0.000000 -0.000003 9.707470 -1.739142 -0.369154 0.000001 0.000011 -3.009389 -5.000192 -7.998779 0.000057 -136.108868 79.135965 142.429388 151.066477 112.593681 -125.544792 -0.000000 -0.000001 -0.000000 93.906406 0.361825 12.216664 0.000005 -0.000002 2.999990 -5.000246 7.999056 -0.000030 4.778624 -183.139092 -5.526325 179.999991 -0.000004 -0.857008 173.575051 -2.278611 -0.646521 0.000002 -0.000003 0.024229 67.245794 6.731485 2.667499 42.434616 -9.969919 -7.450413 -35.114559 195.422121 12.607409 -0.000002 -0.000004 -0.926392 -16.808225 -1.960288 0.370916 -0.000003 -0.000002 -0.907071 75.292215 -7.181503 -0.734835 25.456948 7.355613 0.000199 
91.804306 -11.025016 93.070297 -4.407376 17.868579 125.088754 0.118849 -0.232617 1.725814 4.248057 -0.444388 3.453506 5.891917 -0.403015 3.458584 -5.365640 52.512069 -4.029407 17.454226 -46.712938 -3.118449 20.854973 -10.511599 40.085192 -36.457822 -174.210436 -45.728789 0.000000 0.000001 -0.000002 9.733463 -1.901153 -0.368437 0.000004 0.000008 -3.009391 -5.000189 -7.998780 0.000058 -136.059540 79.145199 142.378995 150.996945 112.582063 -125.496134 -0.000001 0.000002 -0.000001 93.889624 0.370403 12.200417 0.000006 -0.000001 2.999989 -5.000244 7.999057 -0.000032 4.778592 -183.130117 -5.521951 179.999991 -0.000003 -0.857012 173.576581 -2.277627 -0.646349 0.000001 -0.000005 0.024224 67.246887 6.731306 2.667801 42.470864 -9.981120 -7.465609 -35.098921 195.427463 12.605107 -0.000003 -0.000004 -0.927415 -16.810967 -1.954439 0.371597 -0.000003 -0.000003 -0.906761 75.298697 -7.180339 -0.737770 25.456952 7.355612 0.000200 
91.818802 -11.007317 93.072090 -4.396340 17.861944 125.123875 0.127794 -0.232607 1.728200 4.265957 -0.444070 3.458322 5.909818 -0.402639 3.463390 -5.315109 52.477511 -4.075820 17.423949 -46.668292 -3.158306 20.804025 -10.506245 40.017218 -36.270097 -174.279230 -45.777601 0.000000 0.000003 -0.000002 9.763125 -2.059047 -0.367735 0.000003 0.000009 -3.009389 -5.000189 -7.998780 0.000061 -136.020704 79.154379 142.338806 150.936280 112.572138 -125.454128 0.000002 -0.000001 -0.000001 93.872952 0.378769 12.185187 0.000004 -0.000002 2.999990 -5.000247 7.999054 -0.000031 4.778569 -183.120145 -5.516895 179.999991 -0.000004 -0.857003 173.578097 -2.275638 -0.645068 -0.000000 -0.000005 0.024217 67.248198 6.731151 2.667889 42.507559 -9.992619 -7.481076 -35.081761 195.433104 12.603814 -0.000003 -0.000004 -0.928322 -16.811211 -1.948855 0.372196 -0.000003 -0.000003 -0.906279 75.303669 -7.179296 -0.740418 25.456950 7.355609 0.000201 
